<svg width="728" height="320" viewBox="0 0 728 320" fill="none" xmlns="http://www.w3.org/2000/svg">
<rect width="728" height="320" fill="#DEDFE0"/>
<path d="M283.588 161.688V161.656C283.588 161.165 283.508 160.744 283.348 160.392C283.199 160.04 282.97 159.736 282.66 159.48C282.362 159.213 281.988 158.989 281.54 158.808C281.103 158.616 280.602 158.445 280.036 158.296C279.556 158.168 279.156 158.056 278.836 157.96C278.527 157.864 278.282 157.763 278.1 157.656C277.919 157.549 277.791 157.432 277.716 157.304C277.652 157.165 277.62 157.005 277.62 156.824V156.792C277.62 156.515 277.738 156.285 277.972 156.104C278.218 155.912 278.58 155.816 279.06 155.816C279.54 155.816 280.02 155.917 280.5 156.12C280.98 156.312 281.471 156.579 281.972 156.92L283.252 155.064C282.676 154.605 282.042 154.253 281.348 154.008C280.666 153.763 279.914 153.64 279.092 153.64C278.516 153.64 277.988 153.72 277.508 153.88C277.028 154.04 276.612 154.269 276.26 154.568C275.919 154.867 275.652 155.224 275.46 155.64C275.268 156.045 275.172 156.504 275.172 157.016V157.048C275.172 157.603 275.258 158.067 275.428 158.44C275.61 158.813 275.86 159.128 276.18 159.384C276.5 159.629 276.89 159.837 277.348 160.008C277.807 160.179 278.319 160.333 278.884 160.472C279.354 160.589 279.732 160.701 280.02 160.808C280.319 160.915 280.548 161.021 280.708 161.128C280.879 161.235 280.991 161.352 281.044 161.48C281.108 161.597 281.14 161.736 281.14 161.896V161.928C281.14 162.259 280.996 162.52 280.708 162.712C280.431 162.893 280.036 162.984 279.524 162.984C278.884 162.984 278.292 162.861 277.748 162.616C277.215 162.371 276.692 162.04 276.18 161.624L274.724 163.368C275.396 163.976 276.143 164.429 276.964 164.728C277.786 165.016 278.623 165.16 279.476 165.16C280.084 165.16 280.639 165.085 281.14 164.936C281.642 164.776 282.074 164.552 282.436 164.264C282.799 163.965 283.082 163.603 283.284 163.176C283.487 162.739 283.588 162.243 283.588 161.688Z" fill="#7D7E80"/>
<path d="M302.255 165V162.808H296.175V160.456H301.455V158.264H296.175V155.992H302.175V153.8H293.727V165H302.255Z" fill="#7D7E80"/>
<path d="M323.646 165V153.8H320.99L318.046 158.536L315.102 153.8H312.446V165H314.862V157.736L317.982 162.472H318.046L321.198 157.688V165H323.646Z" fill="#7D7E80"/>
<path d="M349.709 165V153.8H347.245V165H349.709Z" fill="#7D7E80"/>
<path d="M371.708 165V153.8H369.052L366.108 158.536L363.164 153.8H360.508V165H362.924V157.736L366.044 162.472H366.108L369.26 157.688V165H371.708Z" fill="#7D7E80"/>
<path d="M393.311 165L388.511 153.72H386.239L381.439 165H383.951L384.975 162.488H389.711L390.735 165H393.311ZM388.831 160.312H385.855L387.343 156.68L388.831 160.312Z" fill="#7D7E80"/>
<path d="M413.215 163.416V158.552H408.351V160.68H410.831V162.28C410.202 162.728 409.429 162.952 408.511 162.952C408.01 162.952 407.551 162.867 407.135 162.696C406.73 162.515 406.373 162.264 406.063 161.944C405.765 161.624 405.53 161.251 405.359 160.824C405.199 160.387 405.119 159.912 405.119 159.4V159.368C405.119 158.888 405.199 158.44 405.359 158.024C405.53 157.597 405.759 157.229 406.047 156.92C406.346 156.6 406.687 156.349 407.071 156.168C407.466 155.976 407.887 155.88 408.335 155.88C408.655 155.88 408.949 155.907 409.215 155.96C409.482 156.013 409.727 156.088 409.951 156.184C410.186 156.28 410.41 156.397 410.623 156.536C410.837 156.675 411.05 156.835 411.263 157.016L412.815 155.144C412.527 154.899 412.229 154.68 411.919 154.488C411.61 154.296 411.279 154.136 410.927 154.008C410.575 153.88 410.191 153.784 409.775 153.72C409.37 153.645 408.917 153.608 408.415 153.608C407.562 153.608 406.778 153.763 406.063 154.072C405.349 154.371 404.73 154.787 404.207 155.32C403.685 155.843 403.274 156.456 402.975 157.16C402.687 157.853 402.543 158.6 402.543 159.4V159.432C402.543 160.264 402.687 161.032 402.975 161.736C403.263 162.44 403.663 163.048 404.175 163.56C404.698 164.072 405.317 164.472 406.031 164.76C406.757 165.048 407.557 165.192 408.431 165.192C409.455 165.192 410.362 165.021 411.151 164.68C411.951 164.328 412.639 163.907 413.215 163.416Z" fill="#7D7E80"/>
<path d="M432.114 165V162.808H426.034V160.456H431.314V158.264H426.034V155.992H432.034V153.8H423.586V165H432.114Z" fill="#7D7E80"/>
<path d="M453.505 165V153.8H450.849L447.905 158.536L444.961 153.8H442.305V165H444.721V157.736L447.841 162.472H447.905L451.057 157.688V165H453.505Z" fill="#7D7E80"/>
</svg>
