<svg width="601" height="483" viewBox="0 0 601 483" fill="none" xmlns="http://www.w3.org/2000/svg">
<path fill-rule="evenodd" clip-rule="evenodd" d="M368.472 0H536.628C572.178 0 601 29.0348 601 64.8507V234.263C601 270.079 572.178 299.113 536.628 299.113H368.472C363.659 299.113 359.008 298.492 354.497 297.484C354.419 297.488 354.372 297.517 354.292 297.52C330.727 298.536 316.924 320.801 313.053 328.017C314.137 331.681 314.899 335.485 314.899 339.505V441.783C314.899 464.09 296.95 482.173 274.808 482.173H166.812C144.671 482.173 126.721 464.09 126.721 441.783V339.505C126.721 332.735 128.531 326.455 131.452 320.85C131.403 320.859 131.222 320.894 131.222 320.894C131.222 320.894 114.873 292.363 91.3246 282.322C91.3023 282.312 91.2862 282.302 91.2697 282.292C91.2553 282.283 91.2406 282.274 91.2212 282.267C88.5594 283.058 85.7996 283.613 82.8839 283.613H29.6123C13.2585 283.613 0 270.256 0 253.78V200.111C0 183.635 13.2585 170.28 29.6123 170.28H82.8839C99.2377 170.28 112.496 183.635 112.496 200.111V253.78C112.496 253.78 124.553 290.394 161.635 299.47C161.722 299.491 161.787 299.513 161.852 299.535C161.915 299.556 161.977 299.577 162.058 299.598C162.462 299.548 162.864 299.493 163.266 299.437C164.434 299.275 165.601 299.113 166.812 299.113H255.528C273.076 293.081 283.876 281.686 283.876 281.686C283.876 281.686 305.173 272.461 304.636 242.564H304.93C304.856 241.987 304.777 241.412 304.697 240.837C304.398 238.672 304.099 236.509 304.099 234.263V64.8507C304.099 29.0348 332.919 0 368.472 0ZM494.803 477.188H533.052C541.502 477.188 548.35 470.286 548.35 461.776V423.241C548.35 414.729 541.502 407.827 533.052 407.827H494.803C486.353 407.827 479.505 414.729 479.505 423.241V461.776C479.505 470.286 486.353 477.188 494.803 477.188Z" fill="#0083E4" fill-opacity="0.5"/>
</svg>
