<svg width="36" height="36" viewBox="0 0 36 36" fill="none" xmlns="http://www.w3.org/2000/svg">
<rect width="36" height="36" rx="4" fill="#0092FD"/>
<path fill-rule="evenodd" clip-rule="evenodd" d="M16.4426 19.5578C15.4676 18.5828 14.7326 17.4911 14.2443 16.3836C14.1418 16.1495 14.2018 15.8753 14.3826 15.6945L15.0651 15.012C15.6243 14.4528 15.6243 13.662 15.1359 13.1736L14.1584 12.1961C13.5076 11.5453 12.4526 11.5453 11.8018 12.1961L11.2584 12.7386C10.6409 13.3561 10.3834 14.247 10.5501 15.1303C10.9618 17.3078 12.2268 19.692 14.2676 21.7328C16.3084 23.7736 18.6926 25.0386 20.8701 25.4503C21.7534 25.617 22.6443 25.3595 23.2618 24.742L23.8043 24.1995C24.4551 23.5486 24.4551 22.4936 23.8043 21.8428L22.8268 20.8653C22.3384 20.377 21.5468 20.377 21.0593 20.8653L20.3068 21.6186C20.1259 21.7995 19.8518 21.8603 19.6176 21.757C18.5101 21.2678 17.4176 20.532 16.4426 19.5578Z" stroke="white" stroke-width="1.5" stroke-linecap="round" stroke-linejoin="round"/>
<path d="M25.5 15.5V10.5H20.5" stroke="white" stroke-width="1.5" stroke-linecap="round" stroke-linejoin="round"/>
<path d="M20.5 15.5L25.5 10.5" stroke="white" stroke-width="1.5" stroke-linecap="round" stroke-linejoin="round"/>
</svg>
