<svg width="48" height="48" viewBox="0 0 48 48" fill="none" xmlns="http://www.w3.org/2000/svg">
<rect width="48" height="48" rx="4" fill="#0092FD" fill-opacity="0.1"/>
<path d="M26.122 21.88C27.293 23.051 27.293 24.952 26.122 26.125C24.951 27.296 23.05 27.296 21.877 26.125C20.706 24.954 20.706 23.053 21.877 21.88C23.05 20.707 24.95 20.707 26.122 21.88" stroke="#0092FD" stroke-width="1.5" stroke-linecap="round" stroke-linejoin="round"/>
<path fill-rule="evenodd" clip-rule="evenodd" d="M15 24C15 23.341 15.152 22.689 15.446 22.088V22.088C16.961 18.991 20.309 17 24 17C27.691 17 31.039 18.991 32.554 22.088V22.088C32.848 22.689 33 23.341 33 24C33 24.659 32.848 25.311 32.554 25.912V25.912C31.039 29.009 27.691 31 24 31C20.309 31 16.961 29.009 15.446 25.912V25.912C15.152 25.311 15 24.659 15 24Z" stroke="#0092FD" stroke-width="1.5" stroke-linecap="round" stroke-linejoin="round"/>
</svg>
