<svg width="485" height="295" viewBox="0 0 485 295" fill="none" xmlns="http://www.w3.org/2000/svg">
<path opacity="0.15" fill-rule="evenodd" clip-rule="evenodd" d="M392.171 0H372.171V40H392.171H416.194L282.654 173.518L282.634 173.537C280.029 176.149 275.777 176.175 273.121 173.519L215.88 116.278L215.87 116.268C197.614 97.9762 168.015 98.0056 149.761 116.26L14.1421 251.879L0 266.021L28.2843 294.305L42.4264 280.163L178.046 144.544C180.702 141.887 184.954 141.914 187.559 144.526L187.577 144.544L244.836 201.803C263.091 220.058 292.692 220.086 310.948 201.792L310.955 201.785L443.497 69.2646V91.3264V111.326H483.497V91.3264V29.2713L484.474 28.2953L483.497 27.3191V20C483.497 8.9543 474.543 0 463.497 0H392.171Z" fill="url(#paint0_linear_364_2892)"/>
<defs>
<linearGradient id="paint0_linear_364_2892" x1="381.261" y1="-78.153" x2="236.048" y2="317.232" gradientUnits="userSpaceOnUse">
<stop stop-color="white"/>
<stop offset="1" stop-color="white" stop-opacity="0"/>
</linearGradient>
</defs>
</svg>
