<svg width="343" height="216" viewBox="0 0 343 216" fill="none" xmlns="http://www.w3.org/2000/svg">
<path opacity="0.1" fill-rule="evenodd" clip-rule="evenodd" d="M276.278 0H265.526V21.5043H276.278H306.174L195.007 132.653L194.996 132.663C191.146 136.523 184.886 136.537 181.002 132.653L136.784 88.4355L136.781 88.4323C124.518 76.141 104.629 76.1561 92.3589 88.4257L-12.3951 193.18L-19.998 200.783L-4.7922 215.989L2.81072 208.386L107.565 103.632C111.448 99.7481 117.709 99.7621 121.559 103.622L121.569 103.632L165.796 147.859C178.065 160.128 197.951 160.144 210.214 147.857L210.221 147.849L320.619 37.47V65.8456V76.5978H342.124V65.8456V10.7522C342.124 4.8139 337.31 0 331.372 0H276.278Z" fill="url(#paint0_linear_5748_9223)"/>
<defs>
<linearGradient id="paint0_linear_5748_9223" x1="264.977" y1="-57.3559" x2="159.89" y2="234.06" gradientUnits="userSpaceOnUse">
<stop stop-color="white"/>
<stop offset="1" stop-color="white" stop-opacity="0.15"/>
</linearGradient>
</defs>
</svg>
