<svg width="794" height="476" viewBox="0 0 794 476" fill="none" xmlns="http://www.w3.org/2000/svg">
<path opacity="0.15" fill-rule="evenodd" clip-rule="evenodd" d="M651.186 0.975098H631.186V40.9751H651.186H727.123L473.685 297.728L473.665 297.747C463.656 307.915 447.499 307.941 437.42 297.729L339.422 198.433L339.413 198.424C313.713 172.327 271.919 172.356 246.201 198.415L14.0488 433.642L0 447.877L28.4697 475.974L42.5185 461.74L274.671 226.513C284.75 216.3 300.907 216.327 310.916 226.494L310.934 226.513L408.95 325.827C434.668 351.885 476.461 351.915 502.162 325.818L502.171 325.808L753.282 71.4139V144.688V164.688H793.282V144.688V20.9751C793.282 9.9294 784.328 0.975098 773.282 0.975098H651.186Z" fill="url(#paint0_linear_354_2526)"/>
<defs>
<linearGradient id="paint0_linear_354_2526" x1="624.281" y1="-125.161" x2="392.483" y2="515.141" gradientUnits="userSpaceOnUse">
<stop stop-color="white"/>
<stop offset="1" stop-color="white" stop-opacity="0"/>
</linearGradient>
</defs>
</svg>
