<svg width="48" height="48" viewBox="0 0 48 48" fill="none" xmlns="http://www.w3.org/2000/svg">
<rect width="48" height="48" fill="#0092FD" fill-opacity="0.1"/>
<path d="M26.7309 21.2812L23.3828 24.6293" stroke="#0092FD" stroke-width="2.61818" stroke-linecap="round" stroke-linejoin="round"/>
<path fill-rule="evenodd" clip-rule="evenodd" d="M26.6719 15.9977V21.3332H32.0074L37.343 15.9977L33.7855 14.2196L32.0074 10.6621L26.6719 15.9977Z" stroke="#0092FD" stroke-width="2.61818" stroke-linecap="round" stroke-linejoin="round"/>
<path d="M22.6764 13.2969C16.5917 13.6703 11.8855 18.778 12.0102 24.8729C12.135 30.9677 17.0464 35.8785 23.1412 36.0026C29.2361 36.1267 34.3433 31.4199 34.7161 25.3352" stroke="#0092FD" stroke-width="2.61818" stroke-linecap="round" stroke-linejoin="round"/>
<path d="M29.6228 25.3343C29.2641 28.6185 26.4304 31.0684 23.1289 30.9486C19.8274 30.8289 17.1786 28.1801 17.0589 24.8786C16.9391 21.5771 19.389 18.7434 22.6732 18.3848" stroke="#0092FD" stroke-width="2.61818" stroke-linecap="round" stroke-linejoin="round"/>
</svg>
