<svg width="552" height="537" viewBox="0 0 552 537" fill="none" xmlns="http://www.w3.org/2000/svg">
<g clip-path="url(#clip0_364_2848)">
<ellipse cx="293.125" cy="244.228" rx="129.511" ry="129.457" fill="white" fill-opacity="0.06"/>
<path opacity="0.2" d="M537.028 244.375C537.028 378.807 428.003 487.787 293.513 487.787C159.024 487.787 49.9986 378.807 49.9986 244.375C49.9986 109.943 159.024 0.963467 293.513 0.963467C428.003 0.963467 537.028 109.943 537.028 244.375Z" stroke="#D4EBFB" stroke-width="1.92693"/>
<rect y="156.122" width="98.03" height="152.491" fill="#111214"/>
<path d="M55.0692 206.254L48.9375 212.386" stroke="white" stroke-width="2.72306" stroke-linecap="round" stroke-linejoin="round"/>
<path fill-rule="evenodd" clip-rule="evenodd" d="M54.9725 196.58V206.352H64.7442L74.516 196.58L68.0007 193.324L64.7442 186.809L54.9725 196.58Z" stroke="white" stroke-width="2.72306" stroke-linecap="round" stroke-linejoin="round"/>
<path d="M47.6441 191.631C36.5004 192.315 27.8812 201.669 28.1098 212.832C28.3383 223.994 37.3331 232.988 48.4955 233.215C59.6578 233.442 69.0113 224.822 69.694 213.678" stroke="#0092FD" stroke-width="2.72306" stroke-linecap="round" stroke-linejoin="round"/>
<path d="M60.3651 213.678C59.7083 219.693 54.5186 224.179 48.4721 223.96C42.4256 223.741 37.5745 218.89 37.3552 212.843C37.1359 206.797 41.6227 201.607 47.6374 200.95" stroke="#0092FD" stroke-width="2.72306" stroke-linecap="round" stroke-linejoin="round"/>
<path d="M17.6708 261.414L21.6251 272.985H21.7846L25.7389 261.414H28.0559L22.9432 275.621H20.4666L15.3538 261.414H17.6708ZM33.4652 275.836C32.4154 275.836 31.5113 275.612 30.7528 275.163C29.9989 274.71 29.4162 274.074 29.0046 273.255C28.5976 272.432 28.3941 271.468 28.3941 270.363C28.3941 269.271 28.5976 268.309 29.0046 267.477C29.4162 266.644 29.9897 265.994 30.725 265.527C31.465 265.06 32.3299 264.827 33.3196 264.827C33.9208 264.827 34.5035 264.926 35.0678 265.125C35.632 265.324 36.1384 265.636 36.587 266.062C37.0356 266.487 37.3894 267.04 37.6484 267.72C37.9074 268.395 38.0369 269.216 38.0369 270.182V270.918H29.5665V269.364H36.0043C36.0043 268.818 35.8933 268.335 35.6713 267.914C35.4493 267.488 35.1371 267.153 34.7348 266.908C34.337 266.663 33.8699 266.54 33.3334 266.54C32.7507 266.54 32.242 266.684 31.8072 266.97C31.3771 267.252 31.0441 267.622 30.8083 268.08C30.577 268.534 30.4614 269.026 30.4614 269.558V270.772C30.4614 271.484 30.5863 272.09 30.836 272.59C31.0904 273.089 31.4442 273.471 31.8974 273.734C32.3507 273.993 32.8802 274.123 33.4861 274.123C33.8792 274.123 34.2376 274.067 34.5613 273.956C34.8851 273.841 35.1649 273.669 35.4007 273.443C35.6366 273.216 35.817 272.936 35.9419 272.603L37.9051 272.957C37.7479 273.535 37.4657 274.042 37.0587 274.476C36.6564 274.907 36.15 275.242 35.5395 275.482C34.9336 275.718 34.2422 275.836 33.4652 275.836ZM42.4126 269.294V275.621H40.3383V264.965H42.3293V266.7H42.4611C42.7063 266.136 43.0901 265.682 43.6127 265.34C44.14 264.998 44.8036 264.827 45.6037 264.827C46.3298 264.827 46.9657 264.979 47.5115 265.285C48.0572 265.585 48.4804 266.034 48.781 266.63C49.0816 267.227 49.2319 267.965 49.2319 268.843V275.621H47.1577V269.093C47.1577 268.321 46.9565 267.717 46.5541 267.283C46.1518 266.843 45.5991 266.623 44.8961 266.623C44.4151 266.623 43.9873 266.728 43.6127 266.936C43.2427 267.144 42.9491 267.449 42.7317 267.851C42.519 268.249 42.4126 268.73 42.4126 269.294ZM56.0027 275.829C55.1425 275.829 54.3747 275.61 53.6995 275.17C53.0289 274.726 52.5017 274.095 52.1178 273.276C51.7386 272.453 51.549 271.466 51.549 270.314C51.549 269.163 51.7409 268.177 52.1247 267.359C52.5132 266.54 53.0451 265.914 53.7203 265.479C54.3955 265.044 55.161 264.827 56.0165 264.827C56.6779 264.827 57.2098 264.938 57.6121 265.16C58.0191 265.377 58.3336 265.631 58.5556 265.923C58.7822 266.214 58.9579 266.471 59.0828 266.693H59.2077V261.414H61.2819V275.621H59.2562V273.963H59.0828C58.9579 274.19 58.7776 274.449 58.5417 274.74C58.3105 275.031 57.9914 275.286 57.5844 275.503C57.1774 275.721 56.6502 275.829 56.0027 275.829ZM56.4605 274.06C57.0571 274.06 57.5612 273.903 57.9729 273.588C58.3891 273.269 58.7036 272.828 58.9163 272.263C59.1337 271.699 59.2424 271.043 59.2424 270.293C59.2424 269.553 59.136 268.906 58.9233 268.351C58.7105 267.796 58.3983 267.363 57.9867 267.054C57.5751 266.744 57.0664 266.589 56.4605 266.589C55.8362 266.589 55.3159 266.751 54.8996 267.074C54.4834 267.398 54.1689 267.84 53.9562 268.399C53.7481 268.959 53.644 269.59 53.644 270.293C53.644 271.006 53.7504 271.646 53.9631 272.215C54.1759 272.784 54.4903 273.235 54.9066 273.568C55.3274 273.896 55.8454 274.06 56.4605 274.06ZM67.3434 275.857C66.6681 275.857 66.0577 275.732 65.5119 275.482C64.9662 275.228 64.5338 274.86 64.2147 274.379C63.9002 273.898 63.7429 273.309 63.7429 272.61C63.7429 272.009 63.8585 271.514 64.0898 271.126C64.321 270.737 64.6332 270.43 65.0263 270.203C65.4194 269.976 65.8588 269.805 66.3444 269.69C66.83 269.574 67.3249 269.486 67.829 269.426C68.4672 269.352 68.9852 269.292 69.3829 269.246C69.7807 269.195 70.0697 269.114 70.2501 269.003C70.4304 268.892 70.5206 268.712 70.5206 268.462V268.413C70.5206 267.807 70.3495 267.338 70.0073 267.005C69.6697 266.672 69.1655 266.506 68.4949 266.506C67.7966 266.506 67.2462 266.66 66.8439 266.97C66.4461 267.276 66.171 267.615 66.0183 267.99L64.069 267.546C64.3002 266.899 64.6378 266.376 65.0818 265.978C65.5304 265.576 66.0461 265.285 66.6288 265.104C67.2116 264.919 67.8243 264.827 68.4672 264.827C68.8927 264.827 69.3436 264.878 69.82 264.979C70.3009 265.076 70.7496 265.257 71.1658 265.52C71.5867 265.784 71.9312 266.161 72.1994 266.651C72.4677 267.137 72.6018 267.768 72.6018 268.545V275.621H70.5761V274.164H70.4929C70.3588 274.433 70.1576 274.696 69.8893 274.955C69.6211 275.214 69.2765 275.429 68.8557 275.6C68.4348 275.771 67.9307 275.857 67.3434 275.857ZM67.7943 274.192C68.3678 274.192 68.858 274.079 69.265 273.852C69.6766 273.625 69.9888 273.329 70.2015 272.964C70.4189 272.594 70.5276 272.199 70.5276 271.778V270.404C70.4536 270.478 70.3102 270.548 70.0975 270.612C69.8893 270.673 69.6512 270.726 69.3829 270.772C69.1147 270.814 68.8534 270.853 68.599 270.89C68.3446 270.922 68.1319 270.95 67.9608 270.973C67.5584 271.024 67.1907 271.11 66.8578 271.23C66.5294 271.35 66.2658 271.523 66.0669 271.75C65.8727 271.972 65.7755 272.268 65.7755 272.638C65.7755 273.151 65.9652 273.54 66.3444 273.804C66.7236 274.063 67.2069 274.192 67.7943 274.192ZM83.3494 267.567L81.4694 267.9C81.3907 267.659 81.2659 267.431 81.0947 267.213C80.9282 266.996 80.7016 266.818 80.4149 266.679C80.1282 266.54 79.7697 266.471 79.3396 266.471C78.7523 266.471 78.262 266.603 77.8689 266.866C77.4758 267.125 77.2793 267.461 77.2793 267.872C77.2793 268.228 77.4111 268.515 77.6747 268.732C77.9383 268.95 78.3638 269.128 78.9511 269.267L80.6438 269.655C81.6243 269.882 82.355 270.231 82.836 270.703C83.317 271.174 83.5575 271.787 83.5575 272.541C83.5575 273.179 83.3725 273.748 83.0025 274.248C82.6371 274.742 82.1261 275.131 81.4694 275.413C80.8173 275.695 80.0611 275.836 79.2009 275.836C78.0077 275.836 77.0341 275.582 76.2803 275.073C75.5264 274.56 75.064 273.831 74.8928 272.888L76.8977 272.583C77.0226 273.105 77.2793 273.501 77.6677 273.769C78.0562 274.032 78.5626 274.164 79.187 274.164C79.8668 274.164 80.4103 274.023 80.8173 273.741C81.2242 273.454 81.4277 273.105 81.4277 272.694C81.4277 272.361 81.3029 272.081 81.0531 271.854C80.808 271.628 80.4311 271.456 79.9223 271.341L78.1187 270.945C77.1243 270.719 76.389 270.358 75.9126 269.863C75.4409 269.368 75.205 268.742 75.205 267.983C75.205 267.354 75.3808 266.804 75.7322 266.332C76.0837 265.86 76.5693 265.493 77.1891 265.229C77.8088 264.961 78.5187 264.827 79.3188 264.827C80.4704 264.827 81.3769 265.076 82.0382 265.576C82.6996 266.071 83.1366 266.734 83.3494 267.567Z" fill="white"/>
<path d="M350.714 185.912H309.933C301.31 185.912 294.321 192.938 294.321 201.605V242.6C294.321 243.288 294.437 243.944 294.522 244.609H294.451C294.581 251.843 289.416 254.075 289.416 254.075C289.416 254.075 286.797 256.833 282.541 258.293H261.026C260.631 258.293 260.255 258.363 259.873 258.41C259.833 258.4 259.811 258.389 259.77 258.379C250.777 256.183 247.853 247.323 247.853 247.323V234.336C247.853 230.349 244.638 227.117 240.671 227.117H227.752C223.786 227.117 220.57 230.349 220.57 234.336V247.323C220.57 251.31 223.786 254.542 227.752 254.542H240.671C241.379 254.542 242.048 254.407 242.693 254.216C242.704 254.22 242.708 254.225 242.719 254.229C248.43 256.659 252.394 263.563 252.394 263.563C252.394 263.563 252.438 263.555 252.45 263.553C251.742 264.909 251.303 266.429 251.303 268.067V292.816C251.303 298.214 255.656 302.59 261.026 302.59H287.217C292.587 302.59 296.94 298.214 296.94 292.816V268.067C296.94 267.094 296.755 266.174 296.492 265.287C297.431 263.541 300.779 258.153 306.494 257.907C306.513 257.906 306.525 257.899 306.543 257.898C307.638 258.142 308.766 258.293 309.933 258.293H350.714C359.336 258.293 366.326 251.267 366.326 242.6V201.605C366.326 192.938 359.336 185.912 350.714 185.912Z" fill="#0092FD"/>
<path d="M349.854 301.385H340.577C338.528 301.385 336.867 299.715 336.867 297.655V288.331C336.867 286.271 338.528 284.601 340.577 284.601H349.854C351.903 284.601 353.564 286.271 353.564 288.331V297.655C353.564 299.715 351.903 301.385 349.854 301.385Z" fill="#0092FD"/>
<path opacity="0.06" d="M481.449 244.313C481.449 348.069 397.302 432.181 293.501 432.181C189.7 432.181 105.553 348.069 105.553 244.313C105.553 140.557 189.7 56.4449 293.501 56.4449C397.302 56.4449 481.449 140.557 481.449 244.313Z" stroke="#E7F5FF" stroke-width="1.92693"/>
<rect x="240.539" y="414.812" width="105.292" height="121.63" fill="#111214"/>
<path d="M270.907 516.2C270.773 515.779 270.592 515.402 270.366 515.069C270.144 514.731 269.878 514.445 269.568 514.209C269.258 513.968 268.904 513.786 268.507 513.661C268.114 513.536 267.681 513.473 267.209 513.473C266.409 513.473 265.688 513.679 265.045 514.091C264.402 514.503 263.893 515.106 263.519 515.902C263.149 516.692 262.964 517.661 262.964 518.808C262.964 519.96 263.151 520.933 263.526 521.729C263.9 522.524 264.414 523.128 265.066 523.539C265.718 523.951 266.46 524.157 267.293 524.157C268.065 524.157 268.738 524 269.311 523.685C269.889 523.371 270.336 522.927 270.65 522.353C270.969 521.775 271.129 521.095 271.129 520.314L271.684 520.418H267.619V518.649H273.203V520.265C273.203 521.458 272.949 522.494 272.44 523.373C271.936 524.247 271.238 524.922 270.345 525.399C269.457 525.875 268.44 526.113 267.293 526.113C266.007 526.113 264.878 525.817 263.907 525.225C262.941 524.633 262.187 523.794 261.646 522.707C261.105 521.616 260.834 520.321 260.834 518.822C260.834 517.689 260.991 516.672 261.306 515.77C261.62 514.868 262.062 514.102 262.631 513.473C263.204 512.84 263.877 512.357 264.649 512.024C265.426 511.686 266.275 511.517 267.195 511.517C267.963 511.517 268.678 511.631 269.339 511.857C270.005 512.084 270.597 512.405 271.115 512.821C271.638 513.238 272.07 513.732 272.412 514.306C272.755 514.875 272.986 515.506 273.106 516.2H270.907ZM280.35 526.134C279.3 526.134 278.396 525.91 277.638 525.461C276.884 525.008 276.301 524.372 275.89 523.553C275.483 522.73 275.279 521.766 275.279 520.661C275.279 519.569 275.483 518.607 275.89 517.775C276.301 516.942 276.875 516.292 277.61 515.825C278.35 515.358 279.215 515.125 280.205 515.125C280.806 515.125 281.389 515.224 281.953 515.423C282.517 515.622 283.023 515.934 283.472 516.359C283.921 516.785 284.274 517.338 284.533 518.017C284.792 518.693 284.922 519.514 284.922 520.48V521.215H276.452V519.662H282.889C282.889 519.116 282.778 518.633 282.556 518.212C282.334 517.786 282.022 517.451 281.62 517.206C281.222 516.961 280.755 516.838 280.218 516.838C279.636 516.838 279.127 516.981 278.692 517.268C278.262 517.55 277.929 517.92 277.693 518.378C277.462 518.831 277.346 519.324 277.346 519.856V521.07C277.346 521.782 277.471 522.388 277.721 522.887C277.975 523.387 278.329 523.768 278.782 524.032C279.236 524.291 279.765 524.42 280.371 524.42C280.764 524.42 281.123 524.365 281.446 524.254C281.77 524.138 282.05 523.967 282.286 523.741C282.522 523.514 282.702 523.234 282.827 522.901L284.79 523.255C284.633 523.833 284.351 524.34 283.944 524.774C283.541 525.204 283.035 525.54 282.424 525.78C281.819 526.016 281.127 526.134 280.35 526.134ZM295.208 517.865L293.328 518.198C293.25 517.957 293.125 517.728 292.954 517.511C292.787 517.294 292.56 517.116 292.274 516.977C291.987 516.838 291.629 516.769 291.198 516.769C290.611 516.769 290.121 516.901 289.728 517.164C289.335 517.423 289.138 517.758 289.138 518.17C289.138 518.526 289.27 518.813 289.533 519.03C289.797 519.248 290.223 519.426 290.81 519.564L292.503 519.953C293.483 520.18 294.214 520.529 294.695 521C295.176 521.472 295.416 522.085 295.416 522.839C295.416 523.477 295.231 524.046 294.861 524.545C294.496 525.04 293.985 525.429 293.328 525.711C292.676 525.993 291.92 526.134 291.06 526.134C289.866 526.134 288.893 525.88 288.139 525.371C287.385 524.858 286.923 524.129 286.752 523.186L288.756 522.88C288.881 523.403 289.138 523.798 289.527 524.067C289.915 524.33 290.421 524.462 291.046 524.462C291.726 524.462 292.269 524.321 292.676 524.039C293.083 523.752 293.287 523.403 293.287 522.991C293.287 522.658 293.162 522.379 292.912 522.152C292.667 521.925 292.29 521.754 291.781 521.639L289.977 521.243C288.983 521.017 288.248 520.656 287.771 520.161C287.3 519.666 287.064 519.039 287.064 518.281C287.064 517.652 287.24 517.102 287.591 516.63C287.943 516.158 288.428 515.791 289.048 515.527C289.668 515.259 290.377 515.125 291.178 515.125C292.329 515.125 293.236 515.374 293.897 515.874C294.558 516.369 294.995 517.032 295.208 517.865ZM302.671 515.263V516.928H296.851V515.263H302.671ZM298.411 512.71H300.486V522.79C300.486 523.193 300.546 523.496 300.666 523.699C300.786 523.898 300.941 524.034 301.131 524.108C301.325 524.178 301.535 524.212 301.762 524.212C301.929 524.212 302.074 524.201 302.199 524.178C302.324 524.155 302.421 524.136 302.491 524.122L302.865 525.836C302.745 525.882 302.574 525.928 302.352 525.974C302.13 526.025 301.852 526.053 301.519 526.058C300.974 526.067 300.465 525.97 299.993 525.766C299.521 525.563 299.14 525.248 298.848 524.823C298.557 524.397 298.411 523.863 298.411 523.22V512.71ZM308.066 526.155C307.391 526.155 306.781 526.03 306.235 525.78C305.689 525.526 305.257 525.158 304.938 524.677C304.623 524.196 304.466 523.607 304.466 522.908C304.466 522.307 304.582 521.812 304.813 521.424C305.044 521.035 305.356 520.728 305.749 520.501C306.142 520.274 306.582 520.103 307.067 519.988C307.553 519.872 308.048 519.784 308.552 519.724C309.19 519.65 309.708 519.59 310.106 519.544C310.504 519.493 310.793 519.412 310.973 519.301C311.153 519.19 311.244 519.009 311.244 518.76V518.711C311.244 518.105 311.072 517.636 310.73 517.303C310.393 516.97 309.889 516.803 309.218 516.803C308.52 516.803 307.969 516.958 307.567 517.268C307.169 517.573 306.894 517.913 306.741 518.288L304.792 517.844C305.023 517.196 305.361 516.674 305.805 516.276C306.253 515.874 306.769 515.582 307.352 515.402C307.935 515.217 308.547 515.125 309.19 515.125C309.616 515.125 310.067 515.175 310.543 515.277C311.024 515.374 311.473 515.555 311.889 515.818C312.31 516.082 312.654 516.459 312.922 516.949C313.191 517.435 313.325 518.066 313.325 518.843V525.919H311.299V524.462H311.216C311.082 524.73 310.881 524.994 310.612 525.253C310.344 525.512 310 525.727 309.579 525.898C309.158 526.069 308.654 526.155 308.066 526.155ZM308.517 524.49C309.091 524.49 309.581 524.377 309.988 524.15C310.4 523.923 310.712 523.627 310.924 523.262C311.142 522.892 311.251 522.497 311.251 522.076V520.702C311.177 520.776 311.033 520.845 310.82 520.91C310.612 520.97 310.374 521.024 310.106 521.07C309.838 521.111 309.576 521.151 309.322 521.188C309.068 521.22 308.855 521.248 308.684 521.271C308.281 521.322 307.914 521.407 307.581 521.528C307.252 521.648 306.989 521.821 306.79 522.048C306.596 522.27 306.499 522.566 306.499 522.936C306.499 523.449 306.688 523.838 307.067 524.101C307.447 524.36 307.93 524.49 308.517 524.49ZM307.213 513.973L305.819 513.931C305.819 513.164 306.024 512.551 306.436 512.093C306.852 511.635 307.366 511.406 307.976 511.406C308.258 511.406 308.506 511.455 308.718 511.552C308.931 511.644 309.13 511.753 309.315 511.878C309.505 511.998 309.692 512.107 309.877 512.204C310.067 512.296 310.277 512.343 310.508 512.343C310.777 512.343 310.994 512.241 311.16 512.037C311.331 511.834 311.417 511.582 311.417 511.281L312.784 511.372C312.784 512.144 312.576 512.752 312.159 513.196C311.743 513.635 311.232 513.857 310.626 513.862C310.298 513.862 310.025 513.816 309.808 513.723C309.595 513.626 309.405 513.517 309.239 513.397C309.072 513.272 308.901 513.161 308.725 513.064C308.55 512.967 308.339 512.919 308.094 512.919C307.835 512.919 307.622 513.02 307.456 513.224C307.294 513.423 307.213 513.672 307.213 513.973ZM320.576 526.134C319.577 526.134 318.705 525.905 317.961 525.447C317.216 524.989 316.638 524.349 316.226 523.526C315.815 522.702 315.609 521.74 315.609 520.64C315.609 519.534 315.815 518.568 316.226 517.74C316.638 516.912 317.216 516.269 317.961 515.811C318.705 515.353 319.577 515.125 320.576 515.125C321.575 515.125 322.447 515.353 323.191 515.811C323.936 516.269 324.514 516.912 324.926 517.74C325.337 518.568 325.543 519.534 325.543 520.64C325.543 521.74 325.337 522.702 324.926 523.526C324.514 524.349 323.936 524.989 323.191 525.447C322.447 525.905 321.575 526.134 320.576 526.134ZM320.583 524.393C321.23 524.393 321.767 524.222 322.192 523.879C322.618 523.537 322.932 523.082 323.136 522.513C323.344 521.944 323.448 521.317 323.448 520.633C323.448 519.953 323.344 519.329 323.136 518.76C322.932 518.186 322.618 517.726 322.192 517.379C321.767 517.032 321.23 516.859 320.583 516.859C319.931 516.859 319.39 517.032 318.96 517.379C318.534 517.726 318.217 518.186 318.009 518.76C317.806 519.329 317.704 519.953 317.704 520.633C317.704 521.317 317.806 521.944 318.009 522.513C318.217 523.082 318.534 523.537 318.96 523.879C319.39 524.222 319.931 524.393 320.583 524.393Z" fill="white"/>
<path d="M276.245 446.801C273.651 449.462 271.769 452.808 270.863 456.539" stroke="white" stroke-width="2.72306" stroke-linecap="round" stroke-linejoin="round"/>
<path d="M286.878 482.14C288.321 482.452 289.818 482.626 291.357 482.626C293.535 482.626 295.637 482.293 297.615 481.681" stroke="#0092FD" stroke-width="2.72306" stroke-linecap="round" stroke-linejoin="round"/>
<path d="M270.863 466.507C271.769 470.238 273.651 473.583 276.245 476.245" stroke="#0092FD" stroke-width="2.72306" stroke-linecap="round" stroke-linejoin="round"/>
<path d="M311.577 467.54C310.553 470.988 308.663 474.057 306.175 476.521" stroke="#0092FD" stroke-width="2.72306" stroke-linecap="round" stroke-linejoin="round"/>
<path d="M306.175 446.525C308.663 448.989 310.551 452.058 311.577 455.506" stroke="#0092FD" stroke-width="2.72306" stroke-linecap="round" stroke-linejoin="round"/>
<path d="M286.878 440.906C288.321 440.593 289.818 440.42 291.357 440.42C293.535 440.42 295.637 440.752 297.615 441.365" stroke="white" stroke-width="2.72306" stroke-linecap="round" stroke-linejoin="round"/>
<path d="M316.768 457.206C319.152 459.59 319.152 463.455 316.768 465.839C314.384 468.223 310.519 468.223 308.135 465.839C305.751 463.455 305.751 459.59 308.135 457.206C310.519 454.822 314.384 454.822 316.768 457.206" stroke="#0092FD" stroke-width="2.72306" stroke-linecap="round" stroke-linejoin="round"/>
<path d="M285.739 475.123C288.123 477.507 288.123 481.372 285.739 483.756C283.355 486.14 279.489 486.14 277.105 483.756C274.721 481.372 274.721 477.507 277.105 475.123C279.489 472.738 283.355 472.738 285.739 475.123" stroke="#0092FD" stroke-width="2.72306" stroke-linecap="round" stroke-linejoin="round"/>
<path d="M285.739 439.29C288.123 441.674 288.123 445.539 285.739 447.923C283.355 450.307 279.489 450.307 277.105 447.923C274.721 445.539 274.721 441.674 277.105 439.29C279.489 436.906 283.355 436.906 285.739 439.29" stroke="white" stroke-width="2.72306" stroke-linecap="round" stroke-linejoin="round"/>
<path d="M427.332 81.8761C427.332 58.0091 446.68 38.6611 470.547 38.6611H551.87V155.873H427.332V81.8761Z" fill="#111214"/>
<path d="M443.688 111.238V125.445H441.545V111.238H443.688ZM448.718 119.119V125.445H446.644V114.79H448.635V116.524H448.766C449.012 115.96 449.395 115.507 449.918 115.164C450.445 114.822 451.109 114.651 451.909 114.651C452.635 114.651 453.271 114.804 453.817 115.109C454.363 115.409 454.786 115.858 455.086 116.455C455.387 117.051 455.537 117.789 455.537 118.668V125.445H453.463V118.917C453.463 118.145 453.262 117.541 452.859 117.107C452.457 116.667 451.904 116.448 451.201 116.448C450.72 116.448 450.293 116.552 449.918 116.76C449.548 116.968 449.254 117.273 449.037 117.676C448.824 118.073 448.718 118.554 448.718 119.119ZM463.293 114.79V116.455H457.473V114.79H463.293ZM459.034 112.237H461.108V122.317C461.108 122.719 461.168 123.022 461.288 123.225C461.408 123.424 461.563 123.561 461.753 123.635C461.947 123.704 462.158 123.739 462.384 123.739C462.551 123.739 462.696 123.727 462.821 123.704C462.946 123.681 463.043 123.662 463.113 123.649L463.487 125.362C463.367 125.408 463.196 125.455 462.974 125.501C462.752 125.552 462.474 125.579 462.141 125.584C461.596 125.593 461.087 125.496 460.615 125.293C460.144 125.089 459.762 124.775 459.471 124.349C459.179 123.924 459.034 123.39 459.034 122.747V112.237ZM470.066 125.66C469.016 125.66 468.112 125.436 467.353 124.987C466.599 124.534 466.017 123.898 465.605 123.08C465.198 122.256 464.994 121.292 464.994 120.187C464.994 119.095 465.198 118.133 465.605 117.301C466.017 116.468 466.59 115.819 467.325 115.352C468.065 114.884 468.93 114.651 469.92 114.651C470.521 114.651 471.104 114.75 471.668 114.949C472.232 115.148 472.739 115.46 473.187 115.886C473.636 116.311 473.99 116.864 474.249 117.544C474.508 118.219 474.637 119.04 474.637 120.007V120.742H466.167V119.188H472.605C472.605 118.642 472.494 118.159 472.272 117.738C472.05 117.313 471.737 116.977 471.335 116.732C470.937 116.487 470.47 116.364 469.934 116.364C469.351 116.364 468.842 116.508 468.408 116.795C467.977 117.077 467.644 117.447 467.409 117.905C467.177 118.358 467.062 118.85 467.062 119.382V120.596C467.062 121.308 467.187 121.914 467.436 122.414C467.691 122.913 468.045 123.295 468.498 123.558C468.951 123.817 469.481 123.947 470.086 123.947C470.479 123.947 470.838 123.891 471.162 123.78C471.485 123.665 471.765 123.494 472.001 123.267C472.237 123.04 472.417 122.761 472.542 122.428L474.505 122.781C474.348 123.36 474.066 123.866 473.659 124.301C473.257 124.731 472.75 125.066 472.14 125.307C471.534 125.542 470.843 125.66 470.066 125.66ZM481.406 129.663C480.56 129.663 479.832 129.552 479.221 129.33C478.615 129.108 478.12 128.815 477.736 128.449C477.353 128.084 477.066 127.684 476.876 127.249L478.659 126.514C478.784 126.717 478.95 126.932 479.159 127.159C479.371 127.39 479.658 127.587 480.019 127.748C480.384 127.91 480.854 127.991 481.427 127.991C482.213 127.991 482.863 127.799 483.376 127.415C483.89 127.036 484.146 126.43 484.146 125.598V123.503H484.015C483.89 123.729 483.709 123.982 483.474 124.259C483.242 124.537 482.923 124.777 482.516 124.981C482.109 125.184 481.58 125.286 480.928 125.286C480.086 125.286 479.327 125.089 478.652 124.696C477.982 124.298 477.45 123.713 477.057 122.941C476.668 122.164 476.474 121.209 476.474 120.076C476.474 118.943 476.666 117.972 477.05 117.162C477.438 116.353 477.97 115.733 478.645 115.303C479.32 114.868 480.086 114.651 480.941 114.651C481.603 114.651 482.137 114.762 482.544 114.984C482.951 115.201 483.268 115.456 483.494 115.747C483.726 116.038 483.904 116.295 484.029 116.517H484.181V114.79H486.214V125.681C486.214 126.597 486.001 127.348 485.576 127.936C485.15 128.523 484.574 128.958 483.848 129.24C483.127 129.522 482.313 129.663 481.406 129.663ZM481.385 123.565C481.982 123.565 482.486 123.427 482.898 123.149C483.314 122.867 483.628 122.465 483.841 121.942C484.059 121.415 484.167 120.783 484.167 120.048C484.167 119.331 484.061 118.7 483.848 118.154C483.635 117.609 483.323 117.183 482.912 116.878C482.5 116.568 481.991 116.413 481.385 116.413C480.761 116.413 480.241 116.575 479.825 116.899C479.408 117.218 479.094 117.652 478.881 118.203C478.673 118.753 478.569 119.368 478.569 120.048C478.569 120.746 478.675 121.359 478.888 121.886C479.101 122.414 479.415 122.825 479.832 123.121C480.252 123.417 480.77 123.565 481.385 123.565ZM488.996 125.445V114.79H491V116.482H491.111C491.306 115.909 491.648 115.458 492.138 115.13C492.633 114.797 493.193 114.63 493.817 114.63C493.947 114.63 494.099 114.635 494.275 114.644C494.455 114.653 494.596 114.665 494.698 114.679V116.663C494.615 116.64 494.467 116.614 494.254 116.586C494.041 116.554 493.829 116.538 493.616 116.538C493.126 116.538 492.689 116.642 492.305 116.85C491.925 117.054 491.625 117.338 491.403 117.703C491.181 118.064 491.07 118.476 491.07 118.938V125.445H488.996ZM499.499 125.681C498.823 125.681 498.213 125.556 497.667 125.307C497.121 125.052 496.689 124.685 496.37 124.204C496.055 123.723 495.898 123.133 495.898 122.435C495.898 121.833 496.014 121.338 496.245 120.95C496.476 120.561 496.788 120.254 497.182 120.027C497.575 119.801 498.014 119.63 498.5 119.514C498.985 119.398 499.48 119.31 499.984 119.25C500.622 119.176 501.14 119.116 501.538 119.07C501.936 119.019 502.225 118.938 502.405 118.827C502.586 118.716 502.676 118.536 502.676 118.286V118.237C502.676 117.632 502.505 117.162 502.163 116.829C501.825 116.496 501.321 116.33 500.65 116.33C499.952 116.33 499.402 116.485 498.999 116.795C498.601 117.1 498.326 117.44 498.174 117.814L496.224 117.37C496.455 116.723 496.793 116.2 497.237 115.803C497.686 115.4 498.201 115.109 498.784 114.928C499.367 114.743 499.98 114.651 500.622 114.651C501.048 114.651 501.499 114.702 501.975 114.804C502.456 114.901 502.905 115.081 503.321 115.345C503.742 115.608 504.086 115.985 504.355 116.475C504.623 116.961 504.757 117.592 504.757 118.369V125.445H502.731V123.988H502.648C502.514 124.257 502.313 124.52 502.045 124.779C501.776 125.038 501.432 125.253 501.011 125.425C500.59 125.596 500.086 125.681 499.499 125.681ZM499.95 124.016C500.523 124.016 501.013 123.903 501.42 123.676C501.832 123.45 502.144 123.154 502.357 122.788C502.574 122.418 502.683 122.023 502.683 121.602V120.228C502.609 120.302 502.465 120.372 502.253 120.437C502.045 120.497 501.806 120.55 501.538 120.596C501.27 120.638 501.009 120.677 500.754 120.714C500.5 120.746 500.287 120.774 500.116 120.797C499.714 120.848 499.346 120.934 499.013 121.054C498.685 121.174 498.421 121.348 498.222 121.574C498.028 121.796 497.931 122.092 497.931 122.462C497.931 122.976 498.12 123.364 498.5 123.628C498.879 123.887 499.362 124.016 499.95 124.016ZM512.008 125.66C510.977 125.66 510.089 125.427 509.344 124.96C508.604 124.488 508.036 123.838 507.638 123.01C507.24 122.182 507.041 121.234 507.041 120.166C507.041 119.084 507.245 118.129 507.652 117.301C508.059 116.468 508.632 115.819 509.372 115.352C510.112 114.884 510.984 114.651 511.987 114.651C512.797 114.651 513.518 114.801 514.152 115.102C514.785 115.398 515.297 115.814 515.685 116.351C516.078 116.887 516.312 117.514 516.386 118.231H514.367C514.256 117.731 514.002 117.301 513.604 116.94C513.211 116.579 512.683 116.399 512.022 116.399C511.444 116.399 510.938 116.552 510.503 116.857C510.073 117.158 509.737 117.588 509.497 118.147C509.256 118.702 509.136 119.359 509.136 120.117C509.136 120.894 509.254 121.565 509.49 122.129C509.726 122.694 510.059 123.131 510.489 123.44C510.924 123.75 511.435 123.905 512.022 123.905C512.415 123.905 512.771 123.834 513.09 123.69C513.414 123.542 513.685 123.332 513.902 123.059C514.124 122.786 514.279 122.458 514.367 122.074H516.386C516.312 122.763 516.087 123.378 515.713 123.919C515.338 124.46 514.836 124.886 514.207 125.196C513.583 125.505 512.85 125.66 512.008 125.66ZM511.259 125.39H512.619L512.508 125.959C512.91 126.023 513.262 126.185 513.562 126.444C513.863 126.703 514.013 127.094 514.013 127.617C514.018 128.241 513.747 128.747 513.201 129.136C512.66 129.524 511.876 129.719 510.85 129.719L510.808 128.56C511.289 128.56 511.678 128.491 511.974 128.352C512.274 128.213 512.427 127.989 512.431 127.679C512.436 127.369 512.32 127.152 512.085 127.027C511.853 126.902 511.483 126.814 510.975 126.763L511.259 125.39ZM521.705 125.681C521.03 125.681 520.419 125.556 519.873 125.307C519.328 125.052 518.895 124.685 518.576 124.204C518.262 123.723 518.104 123.133 518.104 122.435C518.104 121.833 518.22 121.338 518.451 120.95C518.682 120.561 518.995 120.254 519.388 120.027C519.781 119.801 520.22 119.63 520.706 119.514C521.191 119.398 521.686 119.31 522.19 119.25C522.829 119.176 523.347 119.116 523.744 119.07C524.142 119.019 524.431 118.938 524.612 118.827C524.792 118.716 524.882 118.536 524.882 118.286V118.237C524.882 117.632 524.711 117.162 524.369 116.829C524.031 116.496 523.527 116.33 522.856 116.33C522.158 116.33 521.608 116.485 521.205 116.795C520.808 117.1 520.532 117.44 520.38 117.814L518.43 117.37C518.662 116.723 518.999 116.2 519.443 115.803C519.892 115.4 520.408 115.109 520.99 114.928C521.573 114.743 522.186 114.651 522.829 114.651C523.254 114.651 523.705 114.702 524.181 114.804C524.662 114.901 525.111 115.081 525.527 115.345C525.948 115.608 526.293 115.985 526.561 116.475C526.829 116.961 526.963 117.592 526.963 118.369V125.445H524.938V123.988H524.854C524.72 124.257 524.519 124.52 524.251 124.779C523.983 125.038 523.638 125.253 523.217 125.425C522.796 125.596 522.292 125.681 521.705 125.681ZM522.156 124.016C522.729 124.016 523.219 123.903 523.626 123.676C524.038 123.45 524.35 123.154 524.563 122.788C524.78 122.418 524.889 122.023 524.889 121.602V120.228C524.815 120.302 524.672 120.372 524.459 120.437C524.251 120.497 524.013 120.55 523.744 120.596C523.476 120.638 523.215 120.677 522.96 120.714C522.706 120.746 522.493 120.774 522.322 120.797C521.92 120.848 521.552 120.934 521.219 121.054C520.891 121.174 520.627 121.348 520.428 121.574C520.234 121.796 520.137 122.092 520.137 122.462C520.137 122.976 520.327 123.364 520.706 123.628C521.085 123.887 521.568 124.016 522.156 124.016ZM520.852 113.499L519.457 113.458C519.457 112.69 519.663 112.077 520.075 111.619C520.491 111.161 521.004 110.933 521.615 110.933C521.897 110.933 522.144 110.981 522.357 111.078C522.57 111.171 522.769 111.279 522.954 111.404C523.143 111.525 523.33 111.633 523.515 111.73C523.705 111.823 523.915 111.869 524.147 111.869C524.415 111.869 524.632 111.767 524.799 111.564C524.97 111.36 525.056 111.108 525.056 110.808L526.422 110.898C526.422 111.67 526.214 112.278 525.798 112.722C525.382 113.162 524.871 113.384 524.265 113.388C523.936 113.388 523.663 113.342 523.446 113.25C523.233 113.152 523.044 113.044 522.877 112.924C522.711 112.799 522.54 112.688 522.364 112.591C522.188 112.493 521.978 112.445 521.733 112.445C521.474 112.445 521.261 112.547 521.094 112.75C520.932 112.949 520.852 113.199 520.852 113.499ZM534.214 125.66C533.215 125.66 532.344 125.431 531.599 124.974C530.854 124.516 530.276 123.875 529.865 123.052C529.453 122.229 529.247 121.267 529.247 120.166C529.247 119.061 529.453 118.094 529.865 117.266C530.276 116.438 530.854 115.796 531.599 115.338C532.344 114.88 533.215 114.651 534.214 114.651C535.213 114.651 536.085 114.88 536.83 115.338C537.574 115.796 538.152 116.438 538.564 117.266C538.976 118.094 539.182 119.061 539.182 120.166C539.182 121.267 538.976 122.229 538.564 123.052C538.152 123.875 537.574 124.516 536.83 124.974C536.085 125.431 535.213 125.66 534.214 125.66ZM534.221 123.919C534.869 123.919 535.405 123.748 535.831 123.406C536.256 123.064 536.571 122.608 536.774 122.039C536.982 121.47 537.086 120.844 537.086 120.159C537.086 119.479 536.982 118.855 536.774 118.286C536.571 117.713 536.256 117.252 535.831 116.906C535.405 116.559 534.869 116.385 534.221 116.385C533.569 116.385 533.028 116.559 532.598 116.906C532.173 117.252 531.856 117.713 531.648 118.286C531.444 118.855 531.342 119.479 531.342 120.159C531.342 120.844 531.444 121.47 531.648 122.039C531.856 122.608 532.173 123.064 532.598 123.406C533.028 123.748 533.569 123.919 534.221 123.919Z" fill="white"/>
<path fill-rule="evenodd" clip-rule="evenodd" d="M468.583 69.9547L471.996 70.4773C474.516 70.8631 476.316 73.1194 476.13 75.6615L475.879 79.107C475.806 80.1106 476.353 81.0557 477.259 81.4928L479.784 82.7088C480.69 83.1459 481.771 82.9823 482.511 82.301L485.048 79.9568C486.919 78.2279 489.805 78.2279 491.678 79.9568L494.215 82.301C494.955 82.9848 496.035 83.1459 496.943 82.7088L499.473 81.4903C500.376 81.0557 500.921 80.1131 500.848 79.1119L500.596 75.6615C500.41 73.1194 502.21 70.8631 504.73 70.4773L508.144 69.9547C509.138 69.8033 509.939 69.0585 510.163 68.0769L510.786 65.3468C511.011 64.3652 510.613 63.3469 509.783 62.7804L506.933 60.8293C504.83 59.3885 504.188 56.5755 505.458 54.3655L507.179 51.3717C507.68 50.5 507.597 49.4084 506.969 48.6221L505.223 46.4317C504.596 45.6454 503.551 45.3207 502.589 45.6161L499.287 46.6271C496.848 47.3743 494.247 46.1216 493.309 43.7505L492.044 40.5443C491.673 39.6066 490.767 38.9912 489.759 38.9937L486.96 39.001C485.952 39.0034 485.048 39.6237 484.682 40.5638L483.449 43.7334C482.521 46.1192 479.908 47.3816 477.461 46.6295L474.023 45.5746C473.059 45.2767 472.009 45.6039 471.381 46.3951L469.647 48.5879C469.02 49.3816 468.944 50.4755 469.454 51.3473L471.215 54.3484C472.512 56.5608 471.877 59.4007 469.762 60.8488L466.946 62.7779C466.116 63.3469 465.718 64.3652 465.943 65.3444L466.565 68.0744C466.788 69.0585 467.589 69.8033 468.583 69.9547V69.9547Z" stroke="#0092FD" stroke-width="2.72306" stroke-linecap="round" stroke-linejoin="round"/>
<path d="M493.039 56.3703C495.622 58.9538 495.622 63.1442 493.039 65.7277C490.455 68.3112 486.265 68.3112 483.681 65.7277C481.098 63.1442 481.098 58.9538 483.681 56.3703C486.265 53.7867 490.455 53.7867 493.039 56.3703" stroke="white" stroke-width="2.72306" stroke-linecap="round" stroke-linejoin="round"/>
</g>
<defs>
<clipPath id="clip0_364_2848">
<rect width="551.87" height="536.441" fill="white"/>
</clipPath>
</defs>
</svg>
