<svg width="48" height="48" viewBox="0 0 48 48" fill="none" xmlns="http://www.w3.org/2000/svg">
<rect width="48" height="48" fill="#0092FD" fill-opacity="0.1"/>
<path d="M26.357 21.6431C27.6588 22.9448 27.6588 25.0554 26.357 26.3571C25.0553 27.6588 22.9447 27.6588 21.643 26.3571C20.3412 25.0554 20.3412 22.9448 21.643 21.6431C22.9447 20.3413 25.0553 20.3413 26.357 21.6431" stroke="#0092FD" stroke-width="2" stroke-linecap="round" stroke-linejoin="round"/>
<path fill-rule="evenodd" clip-rule="evenodd" d="M27.7962 13.4935L28.5736 13.7522C29.2856 13.9895 29.7669 14.6562 29.7669 15.4069V16.5229C29.7669 17.4722 30.5242 18.2469 31.4736 18.2669L32.5909 18.2909C33.2376 18.3042 33.8242 18.6762 34.1136 19.2549L34.4802 19.9882C34.8162 20.6602 34.6842 21.4709 34.1536 22.0015L33.3642 22.7909C32.6936 23.4615 32.6816 24.5455 33.3376 25.2309L34.1109 26.0389C34.5589 26.5069 34.7109 27.1829 34.5056 27.7975L34.2469 28.5749C34.0096 29.2869 33.3429 29.7682 32.5922 29.7682H31.4762C30.5269 29.7682 29.7522 30.5255 29.7322 31.4749L29.7082 32.5922C29.6949 33.2389 29.3229 33.8255 28.7442 34.1149L28.0109 34.4815C27.3389 34.8175 26.5282 34.6855 25.9976 34.1549L25.2082 33.3655C24.5376 32.6949 23.4536 32.6829 22.7682 33.3389L21.9602 34.1122C21.4922 34.5602 20.8162 34.7122 20.2016 34.5069L19.4242 34.2482C18.7122 34.0109 18.2309 33.3442 18.2309 32.5935V31.4775C18.2309 30.5282 17.4736 29.7535 16.5242 29.7335L15.4069 29.7095C14.7602 29.6962 14.1736 29.3242 13.8842 28.7455L13.5176 28.0122C13.1816 27.3402 13.3136 26.5295 13.8442 25.9989L14.6336 25.2095C15.3042 24.5389 15.3162 23.4549 14.6602 22.7695L13.8869 21.9615C13.4376 21.4922 13.2856 20.8149 13.4909 20.2015L13.7496 19.4242C13.9869 18.7122 14.6536 18.2309 15.4042 18.2309H16.5202C17.4696 18.2309 18.2442 17.4735 18.2642 16.5242L18.2882 15.4069C18.3042 14.7602 18.6749 14.1735 19.2536 13.8842L19.9869 13.5175C20.6589 13.1815 21.4696 13.3135 22.0002 13.8442L22.7896 14.6335C23.4602 15.3042 24.5442 15.3162 25.2296 14.6602L26.0376 13.8869C26.5056 13.4402 27.1829 13.2882 27.7962 13.4935V13.4935Z" stroke="#0092FD" stroke-width="2" stroke-linecap="round" stroke-linejoin="round"/>
</svg>
