<svg width="1200" height="443" viewBox="0 0 1200 443" fill="none" xmlns="http://www.w3.org/2000/svg">
<circle cx="1118.15" cy="2.13523" r="2.13523" fill="white" fill-opacity="0.08"/>
<circle cx="1118.15" cy="320.996" r="2.13523" fill="white" fill-opacity="0.08"/>
<circle cx="1118.15" cy="161.566" r="2.13523" fill="white" fill-opacity="0.08"/>
<circle cx="1118.15" cy="81.8506" r="2.13523" fill="white" fill-opacity="0.08"/>
<circle cx="1118.15" cy="400.712" r="2.13523" fill="white" fill-opacity="0.08"/>
<circle cx="1118.15" cy="241.281" r="2.13523" fill="white" fill-opacity="0.08"/>
<circle cx="1118.15" cy="41.9929" r="2.13523" fill="white" fill-opacity="0.08"/>
<circle cx="1118.15" cy="360.854" r="2.13523" fill="white" fill-opacity="0.08"/>
<circle cx="1118.15" cy="201.424" r="2.13523" fill="white" fill-opacity="0.08"/>
<circle cx="1118.15" cy="121.708" r="2.13523" fill="white" fill-opacity="0.08"/>
<circle cx="1118.15" cy="440.569" r="2.13523" fill="white" fill-opacity="0.08"/>
<circle cx="1118.15" cy="281.139" r="2.13523" fill="white" fill-opacity="0.08"/>
<circle cx="879.002" cy="2.13523" r="2.13523" fill="white" fill-opacity="0.08"/>
<circle cx="879.002" cy="320.996" r="2.13523" fill="white" fill-opacity="0.08"/>
<circle cx="879.002" cy="161.566" r="2.13523" fill="white" fill-opacity="0.08"/>
<circle cx="879.002" cy="81.8506" r="2.13523" fill="white" fill-opacity="0.08"/>
<circle cx="879.002" cy="400.712" r="2.13523" fill="white" fill-opacity="0.08"/>
<circle cx="879.002" cy="241.281" r="2.13523" fill="white" fill-opacity="0.08"/>
<circle cx="879.002" cy="41.9929" r="2.13523" fill="white" fill-opacity="0.08"/>
<circle cx="879.002" cy="360.854" r="2.13523" fill="white" fill-opacity="0.08"/>
<circle cx="879.002" cy="201.424" r="2.13523" fill="white" fill-opacity="0.08"/>
<circle cx="879.002" cy="121.708" r="2.13523" fill="white" fill-opacity="0.08"/>
<circle cx="879.002" cy="440.569" r="2.13523" fill="white" fill-opacity="0.08"/>
<circle cx="879.002" cy="281.139" r="2.13523" fill="white" fill-opacity="0.08"/>
<circle cx="639.858" cy="2.13523" r="2.13523" fill="white" fill-opacity="0.08"/>
<circle cx="639.858" cy="320.996" r="2.13523" fill="white" fill-opacity="0.08"/>
<circle cx="639.858" cy="161.566" r="2.13523" fill="white" fill-opacity="0.08"/>
<circle cx="639.858" cy="81.8506" r="2.13523" fill="white" fill-opacity="0.08"/>
<circle cx="639.858" cy="400.712" r="2.13523" fill="white" fill-opacity="0.08"/>
<circle cx="639.858" cy="241.281" r="2.13523" fill="white" fill-opacity="0.08"/>
<circle cx="639.858" cy="41.9929" r="2.13523" fill="white" fill-opacity="0.08"/>
<circle cx="639.858" cy="360.854" r="2.13523" fill="white" fill-opacity="0.08"/>
<circle cx="639.858" cy="201.424" r="2.13523" fill="white" fill-opacity="0.08"/>
<circle cx="639.858" cy="121.708" r="2.13523" fill="white" fill-opacity="0.08"/>
<circle cx="639.858" cy="440.569" r="2.13523" fill="white" fill-opacity="0.08"/>
<circle cx="639.858" cy="281.139" r="2.13523" fill="white" fill-opacity="0.08"/>
<circle cx="400.713" cy="2.13523" r="2.13523" fill="white" fill-opacity="0.08"/>
<circle cx="400.713" cy="320.996" r="2.13523" fill="white" fill-opacity="0.08"/>
<circle cx="400.713" cy="161.566" r="2.13523" fill="white" fill-opacity="0.08"/>
<circle cx="400.713" cy="81.8506" r="2.13523" fill="white" fill-opacity="0.08"/>
<circle cx="400.713" cy="400.712" r="2.13523" fill="white" fill-opacity="0.08"/>
<circle cx="400.713" cy="241.281" r="2.13523" fill="white" fill-opacity="0.08"/>
<circle cx="400.713" cy="41.9929" r="2.13523" fill="white" fill-opacity="0.08"/>
<circle cx="400.713" cy="360.854" r="2.13523" fill="white" fill-opacity="0.08"/>
<circle cx="400.713" cy="201.424" r="2.13523" fill="white" fill-opacity="0.08"/>
<circle cx="400.713" cy="121.708" r="2.13523" fill="white" fill-opacity="0.08"/>
<circle cx="400.713" cy="440.569" r="2.13523" fill="white" fill-opacity="0.08"/>
<circle cx="400.713" cy="281.139" r="2.13523" fill="white" fill-opacity="0.08"/>
<circle cx="121.709" cy="2.13523" r="2.13523" fill="white" fill-opacity="0.08"/>
<circle cx="121.709" cy="320.996" r="2.13523" fill="white" fill-opacity="0.08"/>
<circle cx="121.709" cy="161.566" r="2.13523" fill="white" fill-opacity="0.08"/>
<circle cx="121.709" cy="81.8506" r="2.13523" fill="white" fill-opacity="0.08"/>
<circle cx="121.709" cy="400.712" r="2.13523" fill="white" fill-opacity="0.08"/>
<circle cx="121.709" cy="241.281" r="2.13523" fill="white" fill-opacity="0.08"/>
<circle cx="121.709" cy="41.9929" r="2.13523" fill="white" fill-opacity="0.08"/>
<circle cx="121.709" cy="360.854" r="2.13523" fill="white" fill-opacity="0.08"/>
<circle cx="121.709" cy="201.424" r="2.13523" fill="white" fill-opacity="0.08"/>
<circle cx="121.709" cy="121.708" r="2.13523" fill="white" fill-opacity="0.08"/>
<circle cx="121.709" cy="440.569" r="2.13523" fill="white" fill-opacity="0.08"/>
<circle cx="121.709" cy="281.139" r="2.13523" fill="white" fill-opacity="0.08"/>
<circle cx="998.577" cy="2.13523" r="2.13523" fill="white" fill-opacity="0.08"/>
<circle cx="998.577" cy="320.997" r="2.13523" fill="white" fill-opacity="0.08"/>
<circle cx="998.577" cy="161.566" r="2.13523" fill="white" fill-opacity="0.08"/>
<circle cx="998.577" cy="81.8506" r="2.13523" fill="white" fill-opacity="0.08"/>
<circle cx="998.577" cy="400.712" r="2.13523" fill="white" fill-opacity="0.08"/>
<circle cx="998.577" cy="241.281" r="2.13523" fill="white" fill-opacity="0.08"/>
<circle cx="998.577" cy="41.9929" r="2.13523" fill="white" fill-opacity="0.08"/>
<circle cx="998.577" cy="360.854" r="2.13523" fill="white" fill-opacity="0.08"/>
<circle cx="998.577" cy="201.424" r="2.13523" fill="white" fill-opacity="0.08"/>
<circle cx="998.577" cy="121.708" r="2.13523" fill="white" fill-opacity="0.08"/>
<circle cx="998.577" cy="440.569" r="2.13523" fill="white" fill-opacity="0.08"/>
<circle cx="998.577" cy="281.139" r="2.13523" fill="white" fill-opacity="0.08"/>
<circle cx="719.573" cy="2.13523" r="2.13523" fill="white" fill-opacity="0.08"/>
<circle cx="719.573" cy="320.996" r="2.13523" fill="white" fill-opacity="0.08"/>
<circle cx="719.573" cy="161.566" r="2.13523" fill="white" fill-opacity="0.08"/>
<circle cx="719.573" cy="81.8506" r="2.13523" fill="white" fill-opacity="0.08"/>
<circle cx="719.573" cy="400.712" r="2.13523" fill="white" fill-opacity="0.08"/>
<circle cx="719.573" cy="241.281" r="2.13523" fill="white" fill-opacity="0.08"/>
<circle cx="719.573" cy="41.9929" r="2.13523" fill="white" fill-opacity="0.08"/>
<circle cx="719.573" cy="360.854" r="2.13523" fill="white" fill-opacity="0.08"/>
<circle cx="719.573" cy="201.424" r="2.13523" fill="white" fill-opacity="0.08"/>
<circle cx="719.573" cy="121.708" r="2.13523" fill="white" fill-opacity="0.08"/>
<circle cx="719.573" cy="440.569" r="2.13523" fill="white" fill-opacity="0.08"/>
<circle cx="719.573" cy="281.139" r="2.13523" fill="white" fill-opacity="0.08"/>
<circle cx="520.284" cy="2.13523" r="2.13523" fill="white" fill-opacity="0.08"/>
<circle cx="520.284" cy="320.996" r="2.13523" fill="white" fill-opacity="0.08"/>
<circle cx="520.284" cy="161.566" r="2.13523" fill="white" fill-opacity="0.08"/>
<circle cx="520.284" cy="81.8506" r="2.13523" fill="white" fill-opacity="0.08"/>
<circle cx="520.284" cy="400.712" r="2.13523" fill="white" fill-opacity="0.08"/>
<circle cx="520.284" cy="241.281" r="2.13523" fill="white" fill-opacity="0.08"/>
<circle cx="520.284" cy="41.9929" r="2.13523" fill="white" fill-opacity="0.08"/>
<circle cx="520.284" cy="360.854" r="2.13523" fill="white" fill-opacity="0.08"/>
<circle cx="520.284" cy="201.424" r="2.13523" fill="white" fill-opacity="0.08"/>
<circle cx="520.284" cy="121.708" r="2.13523" fill="white" fill-opacity="0.08"/>
<circle cx="520.284" cy="440.569" r="2.13523" fill="white" fill-opacity="0.08"/>
<circle cx="520.284" cy="281.139" r="2.13523" fill="white" fill-opacity="0.08"/>
<circle cx="241.28" cy="2.13523" r="2.13523" fill="white" fill-opacity="0.08"/>
<circle cx="241.28" cy="320.996" r="2.13523" fill="white" fill-opacity="0.08"/>
<circle cx="241.28" cy="161.566" r="2.13523" fill="white" fill-opacity="0.08"/>
<circle cx="241.28" cy="81.8506" r="2.13523" fill="white" fill-opacity="0.08"/>
<circle cx="241.28" cy="400.712" r="2.13523" fill="white" fill-opacity="0.08"/>
<circle cx="241.28" cy="241.281" r="2.13523" fill="white" fill-opacity="0.08"/>
<circle cx="241.28" cy="41.9929" r="2.13523" fill="white" fill-opacity="0.08"/>
<circle cx="241.28" cy="360.854" r="2.13523" fill="white" fill-opacity="0.08"/>
<circle cx="241.28" cy="201.424" r="2.13523" fill="white" fill-opacity="0.08"/>
<circle cx="241.28" cy="121.708" r="2.13523" fill="white" fill-opacity="0.08"/>
<circle cx="241.28" cy="440.569" r="2.13523" fill="white" fill-opacity="0.08"/>
<circle cx="241.28" cy="281.139" r="2.13523" fill="white" fill-opacity="0.08"/>
<circle cx="281.139" cy="2.13523" r="2.13523" fill="white" fill-opacity="0.08"/>
<circle cx="281.139" cy="320.996" r="2.13523" fill="white" fill-opacity="0.08"/>
<circle cx="281.139" cy="161.566" r="2.13523" fill="white" fill-opacity="0.08"/>
<circle cx="281.139" cy="81.8506" r="2.13523" fill="white" fill-opacity="0.08"/>
<circle cx="281.139" cy="400.712" r="2.13523" fill="white" fill-opacity="0.08"/>
<circle cx="281.139" cy="241.281" r="2.13523" fill="white" fill-opacity="0.08"/>
<circle cx="281.139" cy="41.9929" r="2.13523" fill="white" fill-opacity="0.08"/>
<circle cx="281.139" cy="360.854" r="2.13523" fill="white" fill-opacity="0.08"/>
<circle cx="281.139" cy="201.424" r="2.13523" fill="white" fill-opacity="0.08"/>
<circle cx="281.139" cy="121.708" r="2.13523" fill="white" fill-opacity="0.08"/>
<circle cx="281.139" cy="440.569" r="2.13523" fill="white" fill-opacity="0.08"/>
<circle cx="281.139" cy="281.139" r="2.13523" fill="white" fill-opacity="0.08"/>
<circle cx="2.13523" cy="2.13523" r="2.13523" fill="white" fill-opacity="0.08"/>
<circle cx="2.13523" cy="320.997" r="2.13523" fill="white" fill-opacity="0.08"/>
<circle cx="2.13523" cy="161.566" r="2.13523" fill="white" fill-opacity="0.08"/>
<circle cx="2.13523" cy="81.8506" r="2.13523" fill="white" fill-opacity="0.08"/>
<circle cx="2.13523" cy="400.712" r="2.13523" fill="white" fill-opacity="0.08"/>
<circle cx="2.13523" cy="241.281" r="2.13523" fill="white" fill-opacity="0.08"/>
<circle cx="2.13523" cy="41.9929" r="2.13523" fill="white" fill-opacity="0.08"/>
<circle cx="2.13523" cy="360.854" r="2.13523" fill="white" fill-opacity="0.08"/>
<circle cx="2.13523" cy="201.424" r="2.13523" fill="white" fill-opacity="0.08"/>
<circle cx="2.13523" cy="121.708" r="2.13523" fill="white" fill-opacity="0.08"/>
<circle cx="2.13523" cy="440.569" r="2.13523" fill="white" fill-opacity="0.08"/>
<circle cx="2.13523" cy="281.139" r="2.13523" fill="white" fill-opacity="0.08"/>
<circle cx="1158.01" cy="2.13523" r="2.13523" fill="white" fill-opacity="0.08"/>
<circle cx="1158.01" cy="320.996" r="2.13523" fill="white" fill-opacity="0.08"/>
<circle cx="1158.01" cy="161.566" r="2.13523" fill="white" fill-opacity="0.08"/>
<circle cx="1158.01" cy="81.8506" r="2.13523" fill="white" fill-opacity="0.08"/>
<circle cx="1158.01" cy="400.712" r="2.13523" fill="white" fill-opacity="0.08"/>
<circle cx="1158.01" cy="241.281" r="2.13523" fill="white" fill-opacity="0.08"/>
<circle cx="1158.01" cy="41.9929" r="2.13523" fill="white" fill-opacity="0.08"/>
<circle cx="1158.01" cy="360.854" r="2.13523" fill="white" fill-opacity="0.08"/>
<circle cx="1158.01" cy="201.424" r="2.13523" fill="white" fill-opacity="0.08"/>
<circle cx="1158.01" cy="121.708" r="2.13523" fill="white" fill-opacity="0.08"/>
<circle cx="1158.01" cy="440.569" r="2.13523" fill="white" fill-opacity="0.08"/>
<circle cx="1158.01" cy="281.139" r="2.13523" fill="white" fill-opacity="0.08"/>
<circle cx="918.862" cy="2.13523" r="2.13523" fill="white" fill-opacity="0.08"/>
<circle cx="918.862" cy="320.996" r="2.13523" fill="white" fill-opacity="0.08"/>
<circle cx="918.862" cy="161.566" r="2.13523" fill="white" fill-opacity="0.08"/>
<circle cx="918.862" cy="81.8506" r="2.13523" fill="white" fill-opacity="0.08"/>
<circle cx="918.862" cy="400.712" r="2.13523" fill="white" fill-opacity="0.08"/>
<circle cx="918.862" cy="241.281" r="2.13523" fill="white" fill-opacity="0.08"/>
<circle cx="918.862" cy="41.9929" r="2.13523" fill="white" fill-opacity="0.08"/>
<circle cx="918.862" cy="360.854" r="2.13523" fill="white" fill-opacity="0.08"/>
<circle cx="918.862" cy="201.424" r="2.13523" fill="white" fill-opacity="0.08"/>
<circle cx="918.862" cy="121.708" r="2.13523" fill="white" fill-opacity="0.08"/>
<circle cx="918.862" cy="440.569" r="2.13523" fill="white" fill-opacity="0.08"/>
<circle cx="918.862" cy="281.139" r="2.13523" fill="white" fill-opacity="0.08"/>
<circle cx="679.713" cy="2.13523" r="2.13523" fill="white" fill-opacity="0.08"/>
<circle cx="679.713" cy="320.996" r="2.13523" fill="white" fill-opacity="0.08"/>
<circle cx="679.713" cy="161.566" r="2.13523" fill="white" fill-opacity="0.08"/>
<circle cx="679.713" cy="81.8506" r="2.13523" fill="white" fill-opacity="0.08"/>
<circle cx="679.713" cy="400.712" r="2.13523" fill="white" fill-opacity="0.08"/>
<circle cx="679.713" cy="241.281" r="2.13523" fill="white" fill-opacity="0.08"/>
<circle cx="679.713" cy="41.9929" r="2.13523" fill="white" fill-opacity="0.08"/>
<circle cx="679.713" cy="360.854" r="2.13523" fill="white" fill-opacity="0.08"/>
<circle cx="679.713" cy="201.424" r="2.13523" fill="white" fill-opacity="0.08"/>
<circle cx="679.713" cy="121.708" r="2.13523" fill="white" fill-opacity="0.08"/>
<circle cx="679.713" cy="440.569" r="2.13523" fill="white" fill-opacity="0.08"/>
<circle cx="679.713" cy="281.139" r="2.13523" fill="white" fill-opacity="0.08"/>
<circle cx="440.569" cy="2.13523" r="2.13523" fill="white" fill-opacity="0.08"/>
<circle cx="440.569" cy="320.996" r="2.13523" fill="white" fill-opacity="0.08"/>
<circle cx="440.569" cy="161.566" r="2.13523" fill="white" fill-opacity="0.08"/>
<circle cx="440.569" cy="81.8506" r="2.13523" fill="white" fill-opacity="0.08"/>
<circle cx="440.569" cy="400.712" r="2.13523" fill="white" fill-opacity="0.08"/>
<circle cx="440.569" cy="241.281" r="2.13523" fill="white" fill-opacity="0.08"/>
<circle cx="440.569" cy="41.9929" r="2.13523" fill="white" fill-opacity="0.08"/>
<circle cx="440.569" cy="360.854" r="2.13523" fill="white" fill-opacity="0.08"/>
<circle cx="440.569" cy="201.424" r="2.13523" fill="white" fill-opacity="0.08"/>
<circle cx="440.569" cy="121.708" r="2.13523" fill="white" fill-opacity="0.08"/>
<circle cx="440.569" cy="440.569" r="2.13523" fill="white" fill-opacity="0.08"/>
<circle cx="440.569" cy="281.139" r="2.13523" fill="white" fill-opacity="0.08"/>
<circle cx="161.565" cy="2.13523" r="2.13523" fill="white" fill-opacity="0.08"/>
<circle cx="161.565" cy="320.996" r="2.13523" fill="white" fill-opacity="0.08"/>
<circle cx="161.565" cy="161.566" r="2.13523" fill="white" fill-opacity="0.08"/>
<circle cx="161.565" cy="81.8506" r="2.13523" fill="white" fill-opacity="0.08"/>
<circle cx="161.565" cy="400.712" r="2.13523" fill="white" fill-opacity="0.08"/>
<circle cx="161.565" cy="241.281" r="2.13523" fill="white" fill-opacity="0.08"/>
<circle cx="161.565" cy="41.9929" r="2.13523" fill="white" fill-opacity="0.08"/>
<circle cx="161.565" cy="360.854" r="2.13523" fill="white" fill-opacity="0.08"/>
<circle cx="161.565" cy="201.424" r="2.13523" fill="white" fill-opacity="0.08"/>
<circle cx="161.565" cy="121.708" r="2.13523" fill="white" fill-opacity="0.08"/>
<circle cx="161.565" cy="440.569" r="2.13523" fill="white" fill-opacity="0.08"/>
<circle cx="161.565" cy="281.139" r="2.13523" fill="white" fill-opacity="0.08"/>
<circle cx="1038.44" cy="2.13523" r="2.13523" fill="white" fill-opacity="0.08"/>
<circle cx="1038.44" cy="320.996" r="2.13523" fill="white" fill-opacity="0.08"/>
<circle cx="1038.44" cy="161.566" r="2.13523" fill="white" fill-opacity="0.08"/>
<circle cx="1038.44" cy="81.8506" r="2.13523" fill="white" fill-opacity="0.08"/>
<circle cx="1038.44" cy="400.712" r="2.13523" fill="white" fill-opacity="0.08"/>
<circle cx="1038.44" cy="241.281" r="2.13523" fill="white" fill-opacity="0.08"/>
<circle cx="1038.44" cy="41.9929" r="2.13523" fill="white" fill-opacity="0.08"/>
<circle cx="1038.44" cy="360.854" r="2.13523" fill="white" fill-opacity="0.08"/>
<circle cx="1038.44" cy="201.424" r="2.13523" fill="white" fill-opacity="0.08"/>
<circle cx="1038.44" cy="121.708" r="2.13523" fill="white" fill-opacity="0.08"/>
<circle cx="1038.44" cy="440.569" r="2.13523" fill="white" fill-opacity="0.08"/>
<circle cx="1038.44" cy="281.139" r="2.13523" fill="white" fill-opacity="0.08"/>
<circle cx="799.288" cy="2.13523" r="2.13523" fill="white" fill-opacity="0.08"/>
<circle cx="799.288" cy="320.996" r="2.13523" fill="white" fill-opacity="0.08"/>
<circle cx="799.288" cy="161.566" r="2.13523" fill="white" fill-opacity="0.08"/>
<circle cx="799.288" cy="81.8506" r="2.13523" fill="white" fill-opacity="0.08"/>
<circle cx="799.288" cy="400.712" r="2.13523" fill="white" fill-opacity="0.08"/>
<circle cx="799.288" cy="241.281" r="2.13523" fill="white" fill-opacity="0.08"/>
<circle cx="799.288" cy="41.9929" r="2.13523" fill="white" fill-opacity="0.08"/>
<circle cx="799.288" cy="360.854" r="2.13523" fill="white" fill-opacity="0.08"/>
<circle cx="799.288" cy="201.424" r="2.13523" fill="white" fill-opacity="0.08"/>
<circle cx="799.288" cy="121.708" r="2.13523" fill="white" fill-opacity="0.08"/>
<circle cx="799.288" cy="440.569" r="2.13523" fill="white" fill-opacity="0.08"/>
<circle cx="799.288" cy="281.139" r="2.13523" fill="white" fill-opacity="0.08"/>
<circle cx="560.143" cy="2.13523" r="2.13523" fill="white" fill-opacity="0.08"/>
<circle cx="560.143" cy="320.996" r="2.13523" fill="white" fill-opacity="0.08"/>
<circle cx="560.143" cy="161.566" r="2.13523" fill="white" fill-opacity="0.08"/>
<circle cx="560.143" cy="81.8506" r="2.13523" fill="white" fill-opacity="0.08"/>
<circle cx="560.143" cy="400.712" r="2.13523" fill="white" fill-opacity="0.08"/>
<circle cx="560.143" cy="241.281" r="2.13523" fill="white" fill-opacity="0.08"/>
<circle cx="560.143" cy="41.9929" r="2.13523" fill="white" fill-opacity="0.08"/>
<circle cx="560.143" cy="360.854" r="2.13523" fill="white" fill-opacity="0.08"/>
<circle cx="560.143" cy="201.424" r="2.13523" fill="white" fill-opacity="0.08"/>
<circle cx="560.143" cy="121.708" r="2.13523" fill="white" fill-opacity="0.08"/>
<circle cx="560.143" cy="440.569" r="2.13523" fill="white" fill-opacity="0.08"/>
<circle cx="560.143" cy="281.139" r="2.13523" fill="white" fill-opacity="0.08"/>
<circle cx="320.995" cy="2.13523" r="2.13523" fill="white" fill-opacity="0.08"/>
<circle cx="320.995" cy="320.996" r="2.13523" fill="white" fill-opacity="0.08"/>
<circle cx="320.995" cy="161.566" r="2.13523" fill="white" fill-opacity="0.08"/>
<circle cx="320.995" cy="81.8506" r="2.13523" fill="white" fill-opacity="0.08"/>
<circle cx="320.995" cy="400.712" r="2.13523" fill="white" fill-opacity="0.08"/>
<circle cx="320.995" cy="241.281" r="2.13523" fill="white" fill-opacity="0.08"/>
<circle cx="320.995" cy="41.9929" r="2.13523" fill="white" fill-opacity="0.08"/>
<circle cx="320.995" cy="360.854" r="2.13523" fill="white" fill-opacity="0.08"/>
<circle cx="320.995" cy="201.424" r="2.13523" fill="white" fill-opacity="0.08"/>
<circle cx="320.995" cy="121.708" r="2.13523" fill="white" fill-opacity="0.08"/>
<circle cx="320.995" cy="440.569" r="2.13523" fill="white" fill-opacity="0.08"/>
<circle cx="320.995" cy="281.139" r="2.13523" fill="white" fill-opacity="0.08"/>
<circle cx="41.9946" cy="2.13523" r="2.13523" fill="white" fill-opacity="0.08"/>
<circle cx="41.9946" cy="320.996" r="2.13523" fill="white" fill-opacity="0.08"/>
<circle cx="41.9946" cy="161.566" r="2.13523" fill="white" fill-opacity="0.08"/>
<circle cx="41.9946" cy="81.8506" r="2.13523" fill="white" fill-opacity="0.08"/>
<circle cx="41.9946" cy="400.712" r="2.13523" fill="white" fill-opacity="0.08"/>
<circle cx="41.9946" cy="241.281" r="2.13523" fill="white" fill-opacity="0.08"/>
<circle cx="41.9946" cy="41.9929" r="2.13523" fill="white" fill-opacity="0.08"/>
<circle cx="41.9946" cy="360.854" r="2.13523" fill="white" fill-opacity="0.08"/>
<circle cx="41.9946" cy="201.424" r="2.13523" fill="white" fill-opacity="0.08"/>
<circle cx="41.9946" cy="121.708" r="2.13523" fill="white" fill-opacity="0.08"/>
<circle cx="41.9946" cy="440.569" r="2.13523" fill="white" fill-opacity="0.08"/>
<circle cx="41.9946" cy="281.139" r="2.13523" fill="white" fill-opacity="0.08"/>
<circle cx="1197.87" cy="2.13523" r="2.13523" fill="white" fill-opacity="0.08"/>
<circle cx="1197.87" cy="320.996" r="2.13523" fill="white" fill-opacity="0.08"/>
<circle cx="1197.87" cy="161.566" r="2.13523" fill="white" fill-opacity="0.08"/>
<circle cx="1197.87" cy="81.8506" r="2.13523" fill="white" fill-opacity="0.08"/>
<circle cx="1197.87" cy="400.712" r="2.13523" fill="white" fill-opacity="0.08"/>
<circle cx="1197.87" cy="241.281" r="2.13523" fill="white" fill-opacity="0.08"/>
<circle cx="1197.87" cy="41.9929" r="2.13523" fill="white" fill-opacity="0.08"/>
<circle cx="1197.87" cy="360.854" r="2.13523" fill="white" fill-opacity="0.08"/>
<circle cx="1197.87" cy="201.424" r="2.13523" fill="white" fill-opacity="0.08"/>
<circle cx="1197.87" cy="121.708" r="2.13523" fill="white" fill-opacity="0.08"/>
<circle cx="1197.87" cy="440.569" r="2.13523" fill="white" fill-opacity="0.08"/>
<circle cx="1197.87" cy="281.139" r="2.13523" fill="white" fill-opacity="0.08"/>
<circle cx="958.717" cy="2.13523" r="2.13523" fill="white" fill-opacity="0.08"/>
<circle cx="958.717" cy="320.996" r="2.13523" fill="white" fill-opacity="0.08"/>
<circle cx="958.717" cy="161.566" r="2.13523" fill="white" fill-opacity="0.08"/>
<circle cx="958.717" cy="81.8506" r="2.13523" fill="white" fill-opacity="0.08"/>
<circle cx="958.717" cy="400.712" r="2.13523" fill="white" fill-opacity="0.08"/>
<circle cx="958.717" cy="241.281" r="2.13523" fill="white" fill-opacity="0.08"/>
<circle cx="958.717" cy="41.9929" r="2.13523" fill="white" fill-opacity="0.08"/>
<circle cx="958.717" cy="360.854" r="2.13523" fill="white" fill-opacity="0.08"/>
<circle cx="958.717" cy="201.424" r="2.13523" fill="white" fill-opacity="0.08"/>
<circle cx="958.717" cy="121.708" r="2.13523" fill="white" fill-opacity="0.08"/>
<circle cx="958.717" cy="440.569" r="2.13523" fill="white" fill-opacity="0.08"/>
<circle cx="958.717" cy="281.139" r="2.13523" fill="white" fill-opacity="0.08"/>
<circle cx="759.432" cy="2.13523" r="2.13523" fill="white" fill-opacity="0.08"/>
<circle cx="759.432" cy="320.996" r="2.13523" fill="white" fill-opacity="0.08"/>
<circle cx="759.432" cy="161.566" r="2.13523" fill="white" fill-opacity="0.08"/>
<circle cx="759.432" cy="81.8506" r="2.13523" fill="white" fill-opacity="0.08"/>
<circle cx="759.432" cy="400.712" r="2.13523" fill="white" fill-opacity="0.08"/>
<circle cx="759.432" cy="241.281" r="2.13523" fill="white" fill-opacity="0.08"/>
<circle cx="759.432" cy="41.9929" r="2.13523" fill="white" fill-opacity="0.08"/>
<circle cx="759.432" cy="360.854" r="2.13523" fill="white" fill-opacity="0.08"/>
<circle cx="759.432" cy="201.424" r="2.13523" fill="white" fill-opacity="0.08"/>
<circle cx="759.432" cy="121.708" r="2.13523" fill="white" fill-opacity="0.08"/>
<circle cx="759.432" cy="440.569" r="2.13523" fill="white" fill-opacity="0.08"/>
<circle cx="759.432" cy="281.139" r="2.13523" fill="white" fill-opacity="0.08"/>
<circle cx="480.428" cy="2.13523" r="2.13523" fill="white" fill-opacity="0.08"/>
<circle cx="480.428" cy="320.996" r="2.13523" fill="white" fill-opacity="0.08"/>
<circle cx="480.428" cy="161.566" r="2.13523" fill="white" fill-opacity="0.08"/>
<circle cx="480.428" cy="81.8506" r="2.13523" fill="white" fill-opacity="0.08"/>
<circle cx="480.428" cy="400.712" r="2.13523" fill="white" fill-opacity="0.08"/>
<circle cx="480.428" cy="241.281" r="2.13523" fill="white" fill-opacity="0.08"/>
<circle cx="480.428" cy="41.9929" r="2.13523" fill="white" fill-opacity="0.08"/>
<circle cx="480.428" cy="360.854" r="2.13523" fill="white" fill-opacity="0.08"/>
<circle cx="480.428" cy="201.424" r="2.13523" fill="white" fill-opacity="0.08"/>
<circle cx="480.428" cy="121.708" r="2.13523" fill="white" fill-opacity="0.08"/>
<circle cx="480.428" cy="440.569" r="2.13523" fill="white" fill-opacity="0.08"/>
<circle cx="480.428" cy="281.139" r="2.13523" fill="white" fill-opacity="0.08"/>
<circle cx="201.424" cy="2.13523" r="2.13523" fill="white" fill-opacity="0.08"/>
<circle cx="201.424" cy="320.996" r="2.13523" fill="white" fill-opacity="0.08"/>
<circle cx="201.424" cy="161.566" r="2.13523" fill="white" fill-opacity="0.08"/>
<circle cx="201.424" cy="81.8506" r="2.13523" fill="white" fill-opacity="0.08"/>
<circle cx="201.424" cy="400.712" r="2.13523" fill="white" fill-opacity="0.08"/>
<circle cx="201.424" cy="241.281" r="2.13523" fill="white" fill-opacity="0.08"/>
<circle cx="201.424" cy="41.9929" r="2.13523" fill="white" fill-opacity="0.08"/>
<circle cx="201.424" cy="360.854" r="2.13523" fill="white" fill-opacity="0.08"/>
<circle cx="201.424" cy="201.424" r="2.13523" fill="white" fill-opacity="0.08"/>
<circle cx="201.424" cy="121.708" r="2.13523" fill="white" fill-opacity="0.08"/>
<circle cx="201.424" cy="440.569" r="2.13523" fill="white" fill-opacity="0.08"/>
<circle cx="201.424" cy="281.139" r="2.13523" fill="white" fill-opacity="0.08"/>
<circle cx="1078.29" cy="2.13523" r="2.13523" fill="white" fill-opacity="0.08"/>
<circle cx="1078.29" cy="320.997" r="2.13523" fill="white" fill-opacity="0.08"/>
<circle cx="1078.29" cy="161.566" r="2.13523" fill="white" fill-opacity="0.08"/>
<circle cx="1078.29" cy="81.8506" r="2.13523" fill="white" fill-opacity="0.08"/>
<circle cx="1078.29" cy="400.712" r="2.13523" fill="white" fill-opacity="0.08"/>
<circle cx="1078.29" cy="241.281" r="2.13523" fill="white" fill-opacity="0.08"/>
<circle cx="1078.29" cy="41.9929" r="2.13523" fill="white" fill-opacity="0.08"/>
<circle cx="1078.29" cy="360.854" r="2.13523" fill="white" fill-opacity="0.08"/>
<circle cx="1078.29" cy="201.424" r="2.13523" fill="white" fill-opacity="0.08"/>
<circle cx="1078.29" cy="121.708" r="2.13523" fill="white" fill-opacity="0.08"/>
<circle cx="1078.29" cy="440.569" r="2.13523" fill="white" fill-opacity="0.08"/>
<circle cx="1078.29" cy="281.139" r="2.13523" fill="white" fill-opacity="0.08"/>
<circle cx="839.147" cy="2.13523" r="2.13523" fill="white" fill-opacity="0.08"/>
<circle cx="839.147" cy="320.996" r="2.13523" fill="white" fill-opacity="0.08"/>
<circle cx="839.147" cy="161.566" r="2.13523" fill="white" fill-opacity="0.08"/>
<circle cx="839.147" cy="81.8506" r="2.13523" fill="white" fill-opacity="0.08"/>
<circle cx="839.147" cy="400.712" r="2.13523" fill="white" fill-opacity="0.08"/>
<circle cx="839.147" cy="241.281" r="2.13523" fill="white" fill-opacity="0.08"/>
<circle cx="839.147" cy="41.9929" r="2.13523" fill="white" fill-opacity="0.08"/>
<circle cx="839.147" cy="360.854" r="2.13523" fill="white" fill-opacity="0.08"/>
<circle cx="839.147" cy="201.424" r="2.13523" fill="white" fill-opacity="0.08"/>
<circle cx="839.147" cy="121.708" r="2.13523" fill="white" fill-opacity="0.08"/>
<circle cx="839.147" cy="440.569" r="2.13523" fill="white" fill-opacity="0.08"/>
<circle cx="839.147" cy="281.139" r="2.13523" fill="white" fill-opacity="0.08"/>
<circle cx="599.999" cy="2.13523" r="2.13523" fill="white" fill-opacity="0.08"/>
<circle cx="599.999" cy="320.996" r="2.13523" fill="white" fill-opacity="0.08"/>
<circle cx="599.999" cy="161.566" r="2.13523" fill="white" fill-opacity="0.08"/>
<circle cx="599.999" cy="81.8506" r="2.13523" fill="white" fill-opacity="0.08"/>
<circle cx="599.999" cy="400.712" r="2.13523" fill="white" fill-opacity="0.08"/>
<circle cx="599.999" cy="241.281" r="2.13523" fill="white" fill-opacity="0.08"/>
<circle cx="599.999" cy="41.9929" r="2.13523" fill="white" fill-opacity="0.08"/>
<circle cx="599.999" cy="360.854" r="2.13523" fill="white" fill-opacity="0.08"/>
<circle cx="599.999" cy="201.424" r="2.13523" fill="white" fill-opacity="0.08"/>
<circle cx="599.999" cy="121.708" r="2.13523" fill="white" fill-opacity="0.08"/>
<circle cx="599.999" cy="440.569" r="2.13523" fill="white" fill-opacity="0.08"/>
<circle cx="599.999" cy="281.139" r="2.13523" fill="white" fill-opacity="0.08"/>
<circle cx="360.854" cy="2.13523" r="2.13523" fill="white" fill-opacity="0.08"/>
<circle cx="360.854" cy="320.997" r="2.13523" fill="white" fill-opacity="0.08"/>
<circle cx="360.854" cy="161.566" r="2.13523" fill="white" fill-opacity="0.08"/>
<circle cx="360.854" cy="81.8506" r="2.13523" fill="white" fill-opacity="0.08"/>
<circle cx="360.854" cy="400.712" r="2.13523" fill="white" fill-opacity="0.08"/>
<circle cx="360.854" cy="241.281" r="2.13523" fill="white" fill-opacity="0.08"/>
<circle cx="360.854" cy="41.9929" r="2.13523" fill="white" fill-opacity="0.08"/>
<circle cx="360.854" cy="360.854" r="2.13523" fill="white" fill-opacity="0.08"/>
<circle cx="360.854" cy="201.424" r="2.13523" fill="white" fill-opacity="0.08"/>
<circle cx="360.854" cy="121.708" r="2.13523" fill="white" fill-opacity="0.08"/>
<circle cx="360.854" cy="440.569" r="2.13523" fill="white" fill-opacity="0.08"/>
<circle cx="360.854" cy="281.139" r="2.13523" fill="white" fill-opacity="0.08"/>
<circle cx="81.8501" cy="2.13523" r="2.13523" fill="white" fill-opacity="0.08"/>
<circle cx="81.8501" cy="320.996" r="2.13523" fill="white" fill-opacity="0.08"/>
<circle cx="81.8501" cy="161.566" r="2.13523" fill="white" fill-opacity="0.08"/>
<circle cx="81.8501" cy="81.8506" r="2.13523" fill="white" fill-opacity="0.08"/>
<circle cx="81.8501" cy="400.712" r="2.13523" fill="white" fill-opacity="0.08"/>
<circle cx="81.8501" cy="241.281" r="2.13523" fill="white" fill-opacity="0.08"/>
<circle cx="81.8501" cy="41.9929" r="2.13523" fill="white" fill-opacity="0.08"/>
<circle cx="81.8501" cy="360.854" r="2.13523" fill="white" fill-opacity="0.08"/>
<circle cx="81.8501" cy="201.424" r="2.13523" fill="white" fill-opacity="0.08"/>
<circle cx="81.8501" cy="121.708" r="2.13523" fill="white" fill-opacity="0.08"/>
<circle cx="81.8501" cy="440.569" r="2.13523" fill="white" fill-opacity="0.08"/>
<circle cx="81.8501" cy="281.139" r="2.13523" fill="white" fill-opacity="0.08"/>
</svg>
